<svg xmlns:xlink="http://www.w3.org/1999/xlink" xmlns="http://www.w3.org/2000/svg" id="Capa_2" data-name="Capa 2" viewBox="0 0 1615.36 352.58" width="1615.36"  height="352.58" ><defs><style> .cls-1 { fill: #05a3c9; fill-rule: evenodd; } .cls-1, .cls-2 { stroke-width: 0px; } .cls-2 { fill: #fff; } </style></defs><g id="katman_1" data-name="katman 1"><path class="cls-2" d="M1144.97,117.39c-35.4,4.4-61.5,24.5-71.1,54.5-6.6,20.4-5.8,39.8,2.5,59.5,9.8,23.3,30.9,39.9,58.9,46.2,8.1,1.9,29,2,37.4.4,32.5-6.4,55.2-26.6,64.6-57.2,2.2-7.3,2.5-9.5,2.5-22.5s-.3-15.2-2.5-22.5c-9.3-30.2-31.2-50.1-62.5-56.7-6.5-1.3-24.3-2.3-29.8-1.7ZM1164.77,157.09c11.7,3.1,22.8,10.7,27.9,19.6,7.9,13.4,7.6,31.1-.6,43.9-14.7,23.1-48.3,26.9-68.5,7.7-16.8-16-17.4-41.4-1.4-58.7,10.7-11.4,27.7-16.3,42.6-12.5Z"/><path class="cls-2" d="M1317.97,117.39c-35.4,4.4-61.5,24.5-71.1,54.5-6.6,20.4-5.8,39.8,2.5,59.5,9.8,23.3,30.9,39.9,58.9,46.2,8.1,1.9,29,2,37.4.4,32.5-6.4,55.2-26.6,64.6-57.2,2.2-7.3,2.5-9.5,2.5-22.5s-.3-15.2-2.5-22.5c-9.3-30.2-31.2-50.1-62.5-56.7-6.5-1.3-24.3-2.3-29.8-1.7ZM1337.87,157.09c11.8,3.1,22.8,10.7,27.9,19.6,7.9,13.4,7.6,31.1-.6,43.9-14.7,23.1-48.3,26.9-68.5,7.7-16.8-16-17.4-41.4-1.4-58.7,10.6-11.4,27.6-16.3,42.6-12.5Z"/><path class="cls-2" d="M1550.97,117.89c-20.6,3-36.1,16.2-41.1,35.2-4.8,17.9-1.4,36.2,8.2,45.1,5.7,5.3,12.5,8.4,31.2,14.4,18.1,5.8,22.2,8.3,24.1,14.4,2.1,7-3.1,15.4-11,17.6-4.3,1.2-12.4,1.2-17.8-.1-5.9-1.4-16.5-6.6-21-10.5-2-1.9-4.3-3.3-4.7-3.3s-2.7,3.4-4.9,7.6c-3.1,5.9-4.1,7.2-4.3,5.6l-.3-2h-48.1v-121.2h-39.8v155.4h87.8v-4.3c0-2.3.2-4.2.4-4.2s3.8,1.7,8,3.6c13,6.1,21.3,7.9,37.4,7.9s23.1-1.4,32.8-6.1c7.7-3.7,18.1-14,21.6-21.2,6.9-14.4,7.9-33.8,2.1-46.1-1-2.3-4.4-6.8-7.6-9.9-6.8-6.8-14.1-10.5-32.8-16.5-7.4-2.3-14.8-5.1-16.5-6.1-6-3.7-7.2-11.8-2.5-16.9,8.2-8.8,22.8-8,38,2.1l3,1.9,8.1-15.5c4.3-8.4,7.9-15.5,7.7-15.6-.9-.9-12.2-5.4-18.6-7.4-13.5-4.2-27.7-5.7-39.4-3.9Z"/><path class="cls-2" d="M432.97,176.29v102.4h36.2c19.9,0,40.7-.6,46.1-1.2,44.7-5.5,77.7-32.6,88.3-72.4,3.5-13.2,4.3-36.4,1.8-50.2-5.1-26.8-19-48.4-40.4-63-9.6-6.6-18.2-10.2-32-14-10.8-2.9-12.5-2.9-55.5-3.5l-44.4-.5v102.4h-.1ZM511.97,115.69c28.1,6,46.8,29.5,46.8,58.9-.1,19.5-6.1,36.3-17.3,47.4-11.1,11.2-27.6,16.6-50.6,16.7h-10.9v-124.6h12.1c6.6,0,15.5.8,19.9,1.6Z"/><path class="cls-2" d="M622.27,176.39v102.3l86.2-.1h86.1l22.2-31.2c12.3-17,22.6-31,22.9-31,.5,0,10.8,14,23,31.2l22.3,31.2h28c15.3,0,27.9-.4,27.9-.7,0-.4-16.5-23.4-36.4-51.1l-36.4-50.4,34.8-48.6c19.2-26.6,35.9-49.5,37-50.8,2.2-2.2,2.2-1.9,2.2,18.6v20.8h42.4v162.2h50.6V116.59l24.7-.2,24.6-.4-13.2-20.8-13.2-20.8-86.4-.1h-86.5l-22.2,31.2c-12.3,17-22.6,31-22.9,31.2-.4,0-10.7-14-22.9-31.2l-22.3-31.2h-172.3v102.1h-.2ZM774.37,125.19c19.8,27.4,36,50.4,36,51.1s-16.2,23.9-36.1,51.5l-36.2,50.2-.4-19.6-.2-19.6h-68.2v-45.9h55.2v-38.8h-55.2v-40h68.2v-19.4c0-10.7.2-19.4.5-19.4.3,0,16.6,22.5,36.4,49.9Z"/><path class="cls-1" d="M114.1,19.87c-20.98,10.95-38.23,20.2-38.16,20.59,0,.98,50.43,26.49,52.2,26.43.79,0,6.69-2.75,13.11-6.03l11.67-5.97,12.72,6.56,12.72,6.56,20.85-9.38c31.34-14.1,34.62-15.67,34.1-16.13-.66-.72-11.93-6.75-42.49-22.82-14.75-7.74-29.05-15.41-31.8-16.92-2.75-1.57-5.38-2.75-5.84-2.75s-18.1,8.92-39.08,19.87ZM21.97,67.61L.07,78.88v49.57c0,27.28.26,49.57.66,49.57.33,0,11.08-4.66,23.93-10.36l23.28-10.36v-52.26l11.34,6.16c8.79,4.79,17.51,9.51,26.29,14.29l14.95,8.07,6.62-3.02c4.2-1.9,8.33-3.8,12.46-5.7,3.21-1.51,11.08-5.05,17.51-7.87,6.43-2.82,12.33-5.7,13.18-6.36,1.11-.85-12.52-8.39-50.43-27.87-28.59-14.69-52.92-26.62-54.03-26.56-1.11.07-11.87,5.18-23.87,11.41ZM237.18,70.75c-14.88,6.75-27.08,12.52-27.08,12.85s8.13,5.18,18.03,10.75c9.97,5.57,18.03,10.43,18.03,10.82s-8.79,4.66-19.54,9.44c-10.75,4.85-37.9,17.11-60.39,27.28l-75.21,34.03c-18.95,8.52-36,16.26-37.9,17.11C14.49,210.55,3.8,215.41,2.36,216.26c-1.44.85-1.77,5.7-2.03,30.16l-.33,29.18,19.54,9.97,19.54,9.97,27.15-12.26c14.88-6.75,27.15-12.59,27.15-13.05s-2.75-2.23-6.1-4c-3.34-1.77-10.29-5.7-15.48-8.72-5.11-3.02-10.23-5.77-11.34-6.16-1.11-.39-2.03-.98-2.03-1.44,0-.39,11.93-6.1,26.56-12.59,28.33-12.66,49.97-22.43,96.46-43.47,20.79-9.38,41.57-18.82,62.43-28.2,18.29-8.26,39.54-17.9,47.21-21.44l13.97-6.43.33-29.51.33-29.51-19.8-10.1c-10.89-5.57-20.26-10.16-20.72-10.16-.52,0-13.11,5.57-28,12.26ZM299.8,177.24c-2.95,1.44-8.72,4.13-12.85,5.97s-12,5.38-17.44,7.87l-9.9,4.52-.2,25.9c-.13,14.23-.66,25.84-1.18,25.77-1.18-.2-19.74-9.7-38.43-19.74-13.51-7.21-14.36-7.54-17.51-5.97-1.84.92-12.79,5.84-24.33,10.89-11.54,5.11-21.38,9.57-21.84,10.03-.46.39,22.75,12.98,51.67,28l52.46,27.28,22.43-11.61c12.33-6.36,22.82-12.2,23.28-12.92,1.11-1.64.98-98.82-.07-98.69-.46.07-3.21,1.25-6.1,2.69ZM175.6,291.27c-3.87,1.64-7.8,3.34-11.67,5.05-11.74,5.05-9.44,5.25-23.41-1.7-9.31-4.66-13.31-6.03-15.08-5.38-1.31.52-12.52,5.57-24.98,11.21-12.39,5.64-23.02,10.29-23.54,10.29-5.25,0,3.48,5.18,36.92,22.03l39.21,19.8,16.52-8.13c9.05-4.46,27.41-13.44,40.65-19.93,13.31-6.49,24-11.93,23.8-12.2-.2-.2-11.34-5.9-24.79-12.72l-24.39-12.33-9.25,4Z"/></g></svg>