<svg xmlns:xlink="http://www.w3.org/1999/xlink" xmlns="http://www.w3.org/2000/svg" viewBox="0 0 426.04 79" width="426.04"  height="79" ><path d="m376.4 39.7c-2.2-1.5-4.6-2.5-7-3.8-1.5-.8-3.1-1.6-4.4-2.7-2.2-1.8-1.8-5.4.6-7 3.3-2.2 8.8-1 9.4 3.5 0 .1.1.2.2.2h5c.1 0 .2-.1.2-.2-.3-3.1-1.5-5.7-3.7-7.4-2.1-1.6-4.5-2.4-7.1-2.4-13.2 0-14.4 14-7.3 18.4.8.5 7.8 4 10.3 5.6 2.5 1.5 3.2 4.3 2.2 6.5-1 2-3.5 3.4-6 3.2-2.8-.2-4.9-1.7-5.7-4-.1-.4-.2-1.2-.2-1.6 0-.1-.1-.2-.2-.2h-5.4c-.1 0-.2.1-.2.2 0 3.9 1 6.1 3.6 8.1 2.5 1.9 5.2 2.7 8.1 2.7 7.4 0 11.2-4.2 12-8.5.6-4.2-.6-8-4.4-10.6z" fill="#fff"/><path d="m140.7 20.7h-5c-.1 0-.2.1-.2.1l-4.5 14.7c-.1.2-.3.2-.4 0l-4.5-14.7c0-.1-.1-.1-.2-.1h-8.2c-.1 0-.2.1-.2.2v37.5c0 .1.1.2.2.2h5.4c.1 0 .2-.1.2-.2v-28.5c0-.2.3-.3.4-.1l4.5 14.8.3 1c0 .1.1.1.2.1h4.2c.1 0 .2-.1.2-.1l.3-1 4.5-14.8c.1-.2.4-.2.4.1v28.5c0 .1.1.2.2.2h5.4c.1 0 .2-.1.2-.2v-37.5c0-.1-.1-.2-.2-.2z" fill="#fff"/><path d="m293.3 20.7c-.1 0-.2.1-.2.1l-4.5 14.7c-.1.2-.3.2-.4 0l-4.5-14.7c0-.1-.1-.1-.2-.1h-8.3c-.1 0-.2.1-.2.2v37.5c0 .1.1.2.2.2h5.4c.1 0 .2-.1.2-.2v-28.5c0-.2.3-.3.4-.1l4.5 14.8.3 1c0 .1.1.1.2.1h4.2c.1 0 .2-.1.2-.1l.3-1 4.5-14.8c.1-.2.4-.2.4.1v28.5c0 .1.1.2.2.2h5.4c.1 0 .2-.1.2-.2v-37.5c0-.1-.1-.2-.2-.2z" fill="#fff"/><path d="m223.3 20.7h-25.7c-.1 0-.2.1-.2.2v4.7c0 .1.1.2.2.2h9.9v32.6c0 .1.1.2.2.2h5.4c.1 0 .2-.1.2-.2v-32.6h9.9c.1 0 .2-.1.2-.2v-4.7c.1-.1 0-.2-.1-.2z" fill="#fff"/><path d="m255.3 58.6h4.9c.1 0 .2-.1.2-.3l-10.2-37.6c0-.1-.1-.1-.2-.1h-7.1c-.1 0-.2.1-.2.1l-10.2 37.6c0 .1.1.3.2.3h4.9c.1 0 .2-.1.2-.1l3-11c0-.1.1-.1.2-.1h10.9c.1 0 .2.1.2.1l3 11s.1.1.2.1zm-13-16.6 4-14.7c.1-.2.3-.2.4 0l4 14.7c0 .1-.1.3-.2.3h-7.9c-.2 0-.3-.2-.3-.3z" fill="#fff"/><path d="m339.5 58.6h4.9c.1 0 .2-.1.2-.3l-10.2-37.6c0-.1-.1-.1-.2-.1h-7.1c-.1 0-.2.1-.2.1l-10.2 37.6c0 .1.1.3.2.3h4.9c.1 0 .2-.1.2-.1l3-11c0-.1.1-.1.2-.1h10.9c.1 0 .2.1.2.1l3 11s.1.1.2.1zm-13-16.6 4-14.7c.1-.2.3-.2.4 0l4 14.7c0 .1-.1.3-.2.3h-7.9c-.2 0-.3-.2-.3-.3z" fill="#fff"/><path d="m166.1 53v-11.6c0-.1.1-.2.2-.2h14.5c.1 0 .2-.1.2-.2v-4.7c0-.1-.1-.2-.2-.2h-14.5c-.1 0-.2-.1-.2-.2v-9.9c0-.1.1-.2.2-.2h16.4c.1 0 .2-.1.2-.2v-4.7c0-.1-.1-.2-.2-.2h-22.2c-.1 0-.2.1-.2.2v37.5c0 .1.1.2.2.2h22.9c.1 0 .2-.1.2-.2v-4.9c0-.1-.1-.2-.2-.2h-17.2c0-.1-.1-.2-.1-.3z" fill="#fff"/><path d="m426 58.2-18.8-19.4c-.1-.1-.1-.2 0-.3l16.9-17.6c.1-.1 0-.3-.1-.3h-6.9q-.1 0-.1.1l-14.4 15c-.1.1-.3 0-.3-.1v-14.6c0-.1-.1-.2-.2-.2h-5.5c-.1 0-.2.1-.2.2v37.5c0 .1.1.2.2.2h5.4c.1 0 .2-.1.2-.2v-16.5c0-.2.2-.3.3-.1l16.2 16.8.1.1h6.9c.3-.2.4-.5.3-.6z" fill="#fff"/><g stroke-linecap="round" stroke-linejoin="round"><path d="m80.4.5-32.8 24.4 6.1-14.4z" fill="#e17726" stroke="#e17726"/><path d="m4.6.5 32.6 24.6-5.8-14.6z" fill="#e27625" stroke="#e27625"/><path d="m68.6 57-8.8 13.4 18.8 5.2 5.3-18.3z" fill="#e27625" stroke="#e27625"/><path d="m1.2 57.3 5.3 18.3 18.7-5.2-8.7-13.4z" fill="#e27625" stroke="#e27625"/><path d="m24.2 34.4-5.2 7.9 18.5.8-.6-20z" fill="#e27625" stroke="#e27625"/><path d="m60.9 34.4-12.9-11.5-.4 20.2 18.5-.8z" fill="#e27625" stroke="#e27625"/><path d="m25.2 70.4 11.2-5.4-9.7-7.6z" fill="#e27625" stroke="#e27625"/><path d="m48.7 65 11.1 5.4-1.5-13z" fill="#e27625" stroke="#e27625"/><path d="m59.8 70.4-11.1-5.4.9 7.2-.1 3.1z" fill="#d5bfb2" stroke="#d5bfb2"/><path d="m25.2 70.4 10.4 4.9-.1-3.1.9-7.2z" fill="#d5bfb2" stroke="#d5bfb2"/><path d="m35.8 52.6-9.3-2.7 6.5-3z" fill="#233447" stroke="#233447"/><path d="m49.3 52.6 2.7-5.7 6.6 3z" fill="#233447" stroke="#233447"/><path d="m25.2 70.4 1.6-13.4-10.3.3z" fill="#cc6228" stroke="#cc6228"/><path d="m58.3 57 1.5 13.4 8.8-13.1z" fill="#cc6228" stroke="#cc6228"/><path d="m66.1 42.3-18.5.8 1.7 9.5 2.7-5.7 6.6 3z" fill="#cc6228" stroke="#cc6228"/><path d="m26.5 49.9 6.5-3 2.8 5.7 1.7-9.5-18.5-.8z" fill="#cc6228" stroke="#cc6228"/><path d="m19 42.3 7.7 15.1-.2-7.5z" fill="#e27525" stroke="#e27525"/><path d="m58.6 49.9-.3 7.5 7.8-15.1z" fill="#e27525" stroke="#e27525"/><path d="m37.5 43.1-1.7 9.5 2.1 11.3.5-14.9z" fill="#e27525" stroke="#e27525"/><path d="m47.6 43.1-.9 5.9.4 14.9 2.2-11.3z" fill="#e27525" stroke="#e27525"/><path d="m49.3 52.6-2.2 11.3 1.6 1.1 9.6-7.6.3-7.5z" fill="#f5841f" stroke="#f5841f"/><path d="m26.5 49.9.2 7.5 9.7 7.6 1.5-1.1-2.1-11.3z" fill="#f5841f" stroke="#f5841f"/><path d="m49.5 75.3.1-3.1-.9-.7h-12.4l-.8.7.1 3.1-10.4-4.9 3.6 3 7.4 5.1h12.6l7.4-5.1 3.6-3z" fill="#c0ac9d" stroke="#c0ac9d"/><path d="m48.7 65-1.6-1.1h-9.2l-1.5 1.1-.9 7.2.8-.7h12.4l.9.7z" fill="#161616" stroke="#161616"/><path d="m81.8 26.5 2.8-13.5-4.2-12.5-31.7 23.6 12.2 10.3 17.2 5 3.8-4.4-1.6-1.2 2.6-2.4-2-1.6 2.6-2z" fill="#763e1a" stroke="#763e1a"/><path d="m.5 13 2.8 13.5-1.8 1.3 2.6 2-2 1.6 2.7 2.4-1.7 1.2 3.8 4.4 17.3-5 12.2-10.3-31.8-23.6z" fill="#763e1a" stroke="#763e1a"/><path d="m78.1 39.4-17.2-5 5.2 7.9-7.8 15.1 10.3-.1h15.3z" fill="#f5841f" stroke="#f5841f"/><path d="m24.2 34.4-17.3 5-5.7 17.9h15.3l10.2.1-7.7-15.1z" fill="#f5841f" stroke="#f5841f"/><path d="m47.6 43.1 1.1-19 5-13.6h-22.3l5 13.6 1.1 19 .4 6v14.8h9.2v-14.8z" fill="#f5841f" stroke="#f5841f"/></g></svg>