<svg xmlns:xlink="http://www.w3.org/1999/xlink" xmlns="http://www.w3.org/2000/svg" id="Capa_2" data-name="Capa 2" viewBox="0 0 347 75" width="347"  height="75" ><defs><style> .cls-1 { fill-rule: evenodd; } .cls-1, .cls-2 { fill: #f7f6ff; stroke-width: 0px; } </style></defs><g id="Capa_1-2" data-name="Capa 1"><path class="cls-2" d="M125.72,63.19c-6.15,0-12.92-2.02-20.32-6.07v-8.76c6.97,4.57,13.77,6.85,20.4,6.85,3.05,0,5.47-.54,7.26-1.62,1.84-1.13,2.76-2.68,2.76-4.66,0-1.79-.85-3.2-2.54-4.24-1.69-1.08-4.31-2.05-7.84-2.9-6.34-1.6-10.65-2.97-12.92-4.09-5.03-2.5-7.55-6.24-7.55-11.23,0-4.28,1.86-7.67,5.59-10.17s8.32-3.74,13.79-3.74c6.68,0,12.7,1.88,18.07,5.65v8.76c-6.14-4.33-12.17-6.5-18.07-6.5-3.1,0-5.66.57-7.69,1.69-2.03,1.13-3.05,2.71-3.05,4.73,0,1.22.58,2.28,1.74,3.18,1.16.85,2.42,1.51,3.77,1.98,1.4.42,3.48.97,6.24,1.62,2.9.71,5.3,1.39,7.19,2.05,1.94.66,3.89,1.58,5.88,2.75,1.98,1.13,3.46,2.57,4.43,4.31,1.02,1.74,1.52,3.81,1.52,6.21,0,4.47-1.77,7.95-5.3,10.45-3.48,2.49-7.94,3.74-13.36,3.74Z"/><path class="cls-2" d="M161.85,63.19c-1.69,0-3.34-.19-4.94-.56-1.55-.38-3.05-.97-4.5-1.77-1.45-.85-2.64-2.05-3.56-3.6-.92-1.6-1.38-3.46-1.38-5.58-.05-3.81,1.31-6.71,4.07-8.68,2.76-2.02,6.7-3.04,11.83-3.04h11.69v-2.26c0-2.07-.87-3.62-2.61-4.66-1.74-1.08-3.99-1.62-6.75-1.62-5.27,0-8.35,1.69-9.22,5.08l-7.99.14c.1-3.72,1.77-6.66,5.01-8.83,3.29-2.17,7.31-3.25,12.05-3.25s8.88,1.13,12.27,3.39c3.44,2.26,5.15,5.18,5.15,8.76v25.91h-7.91v-5.65c-1.11,1.51-2.81,2.92-5.08,4.24-2.23,1.32-4.93,1.98-8.13,1.98ZM162.5,56.49c3.19,0,6.07-1.06,8.64-3.18,2.61-2.12,3.92-4.61,3.92-7.48h-10.23c-3.14,0-5.49.59-7.04,1.76-1.5,1.13-2.15,2.57-1.96,4.31.15,1.6.87,2.78,2.18,3.53,1.31.71,2.81,1.06,4.5,1.06Z"/><path class="cls-2" d="M189.35,62.63l-.14-30.43v-8.26c0-4.47,1.89-7.84,5.66-10.1,3.78-2.26,8.76-2.64,14.95-1.13l-.07,6.21c-4.02-1.04-7.07-1.04-9.15,0-2.03.99-3.05,2.68-3.05,5.08v1.2h11.9v6.99h-11.9l.07,30.43h-8.27Z"/><path class="cls-2" d="M231.4,63.19c-5.52,0-10.19-1.88-14.01-5.65-3.82-3.81-5.73-8.38-5.73-13.7s1.94-9.91,5.81-13.63c3.87-3.77,8.52-5.65,13.94-5.65,4.79,0,9,1.53,12.63,4.59,3.68,3.01,5.93,6.8,6.75,11.37.48,2.21.51,4.33.07,6.35h-30.92c.48,2.78,1.79,4.99,3.92,6.64,2.13,1.6,4.65,2.4,7.55,2.4,4.45,0,8.01-1.53,10.67-4.59h7.49s-.87,4.95-7.49,9.18c-3.39,1.79-6.94,2.68-10.67,2.68ZM219.94,40.6h22.72c-.48-2.49-1.77-4.59-3.85-6.28-2.03-1.69-4.53-2.54-7.48-2.54s-5.47.87-7.55,2.61c-2.08,1.7-3.36,3.77-3.85,6.21Z"/><path class="cls-2" d="M311.47,63.19c-1.69,0-3.34-.19-4.93-.56-1.55-.38-3.05-.97-4.5-1.77-1.45-.85-2.64-2.05-3.56-3.6-.92-1.6-1.38-3.46-1.38-5.58-.05-3.81,1.31-6.71,4.06-8.68,2.76-2.02,6.7-3.04,11.83-3.04h11.69v-2.26c0-2.07-.87-3.62-2.61-4.66-1.74-1.08-3.99-1.62-6.75-1.62-5.27,0-8.35,1.69-9.22,5.08l-7.98.14c.1-3.72,1.77-6.66,5.01-8.83,3.29-2.17,7.31-3.25,12.05-3.25s8.88,1.13,12.27,3.39c3.44,2.26,5.15,5.18,5.15,8.76v25.91h-7.91v-5.65c-1.11,1.51-2.81,2.92-5.08,4.24-2.23,1.32-4.94,1.98-8.13,1.98ZM312.12,56.49c3.19,0,6.07-1.06,8.64-3.18,2.61-2.12,3.92-4.61,3.92-7.48h-10.23c-3.15,0-5.49.59-7.04,1.76-1.5,1.13-2.15,2.57-1.96,4.31.14,1.6.87,2.78,2.18,3.53,1.31.71,2.81,1.06,4.5,1.06Z"/><path class="cls-2" d="M338.65,62.63V13.84h8.35v48.79h-8.35Z"/><path class="cls-1" d="M255.71,13.84h22.07c4.89,0,8.95,1.62,12.19,4.87,3.24,3.2,4.86,7.08,4.86,11.65s-1.62,8.5-4.86,11.65c-3.19,3.11-7.26,4.68-12.19,4.73l-13.43.07v15.82h-8.64V13.84ZM277.19,39.19l-12.85.07v-17.79l12.85-.07c2.86,0,5.11.82,6.75,2.47,1.69,1.65,2.54,3.72,2.54,6.21s-.85,4.71-2.54,6.5c-1.69,1.74-3.94,2.61-6.75,2.61Z"/><path class="cls-2" d="M33.8,0c-2.35,0-4.6.91-6.26,2.52L1.48,27.88c-.99.96-1.48,2.22-1.48,3.48s.49,2.52,1.48,3.48l17.08,16.61v-29.42c0-2.2,1.82-3.97,4.07-3.97h35.91L77.11,0h-43.31Z"/><path class="cls-2" d="M18.56,56.94h35.9c2.26,0,4.09-1.78,4.09-3.97v-29.41l17.08,16.61c.99.96,1.48,2.22,1.48,3.48s-.49,2.52-1.48,3.48l-26.07,25.35c-1.66,1.61-3.91,2.52-6.26,2.52H0l18.56-18.06Z"/></g></svg>