<svg xmlns="http://www.w3.org/2000/svg" xmlns:xlink="http://www.w3.org/1999/xlink" viewBox="0 0 325.85 75.79" width="325.85"  height="75.79" ><clipPath id="a"><path d="m0 0h75.79v75.79h-75.79z"/></clipPath><g clip-path="url(#a)"><path d="m2.58 12.93c-2.58 5.07-2.58 11.7-2.58 24.96s0 19.9 2.58 24.96c2.27 4.45 5.9 8.08 10.35 10.35 5.07 2.58 11.7 2.58 24.96 2.58s19.9 0 24.96-2.58c4.45-2.27 8.08-5.9 10.35-10.35 2.58-5.07 2.58-11.7 2.58-24.96s0-19.9-2.58-24.96c-2.27-4.45-5.9-8.08-10.35-10.35-5.07-2.58-11.7-2.58-24.96-2.58s-19.9 0-24.96 2.58c-4.45 2.28-8.07 5.9-10.35 10.35zm54.23 7.51c.66 0 1.29.27 1.75.73.46.47.72 1.11.71 1.76-.12 7.06-.39 12.46-.9 16.73-.5 4.28-1.24 7.45-2.37 10.02-.76 1.72-1.69 3.14-2.79 4.35-1.48 1.6-3.17 2.76-5.02 3.86-.79.47-1.61.94-2.47 1.43-1.84 1.04-3.86 2.19-6.15 3.72-.83.56-1.91.56-2.74 0-2.33-1.55-4.37-2.71-6.23-3.76-.41-.23-.82-.46-1.21-.69-2.17-1.26-4.12-2.45-5.83-4.18-1.14-1.14-2.12-2.52-2.9-4.17-1.07-2.2-1.79-4.87-2.32-8.31-.71-4.61-1.07-10.63-1.2-19 0-.65.24-1.29.7-1.76.46-.46 1.1-.73 1.76-.73h1.02c3.14.01 10.07-.3 16.06-4.96.89-.69 2.13-.69 3.02 0 5.99 4.67 12.92 4.97 16.07 4.96zm-5.51 27.68c.77-1.59 1.41-3.78 1.89-6.93.58-3.77.94-8.88 1.1-15.85-3.69-.11-10.04-.82-16.09-4.89-6.05 4.06-12.4 4.77-16.08 4.89.13 5.76.39 10.23.81 13.75.47 4 1.15 6.71 1.99 8.62.56 1.27 1.17 2.18 1.91 2.98.98 1.08 2.23 1.97 3.92 2.98.7.42 1.48.86 2.32 1.34 1.5.85 3.22 1.82 5.14 3.04 1.88-1.2 3.58-2.16 5.06-3.01.45-.25.88-.5 1.28-.73 2.08-1.2 3.62-2.19 4.77-3.35.78-.78 1.4-1.65 1.98-2.84z" fill="#fff" fill-rule="evenodd"/></g><path d="m106.37 30.33h-8.49v-5h23.12v5h-8.49v21.52h-6.14zm21.58 3.83c.71-.99 1.65-1.73 2.84-2.24 1.21-.51 2.6-.76 4.17-.76v5.46c-.66-.05-1.1-.08-1.33-.08-1.69 0-3.02.48-3.98 1.44-.96.93-1.44 2.35-1.44 4.24v9.63h-5.91v-20.39h5.65zm30.08-2.69v20.39h-5.61v-2.43c-.78.88-1.72 1.57-2.8 2.05-1.09.45-2.26.68-3.52.68-2.68 0-4.8-.77-6.37-2.31s-2.35-3.83-2.35-6.86v-11.52h5.91v10.65c0 3.28 1.38 4.93 4.13 4.93 1.41 0 2.55-.45 3.41-1.36.86-.93 1.29-2.31 1.29-4.13v-10.08h5.91zm11.2 20.69c-1.69 0-3.35-.2-4.96-.61-1.62-.43-2.91-.96-3.87-1.59l1.97-4.24c.91.58 2.01 1.06 3.3 1.44 1.29.35 2.55.53 3.79.53 2.5 0 3.75-.62 3.75-1.86 0-.58-.34-1-1.02-1.25s-1.73-.47-3.15-.64c-1.67-.25-3.04-.54-4.13-.87s-2.03-.91-2.84-1.74c-.78-.83-1.17-2.02-1.17-3.56 0-1.29.37-2.43 1.1-3.41.76-1.01 1.84-1.79 3.26-2.35 1.44-.56 3.13-.83 5.08-.83 1.44 0 2.87.16 4.28.49 1.44.3 2.63.73 3.56 1.29l-1.97 4.21c-1.79-1.01-3.75-1.52-5.87-1.52-1.26 0-2.21.18-2.84.53s-.95.81-.95 1.36c0 .63.34 1.07 1.02 1.33.68.25 1.77.49 3.26.72 1.67.28 3.03.58 4.09.91 1.06.3 1.98.87 2.77 1.71.78.83 1.17 2 1.17 3.49 0 1.26-.38 2.39-1.14 3.37s-1.87 1.76-3.33 2.31c-1.45.52-3.16.78-5.16.78zm25.29-1.29c-.58.43-1.3.76-2.16.99-.83.2-1.72.3-2.65.3-2.43 0-4.31-.62-5.65-1.86-1.31-1.24-1.97-3.06-1.97-5.46v-8.37h-3.15v-4.55h3.15v-4.96h5.91v4.96h5.08v4.55h-5.08v8.3c0 .86.21 1.53.64 2.01.45.45 1.09.68 1.89.68.93 0 1.73-.25 2.39-.76zm52.28-25.54-8.68 26.53h-6.59l-5.84-17.96-6.03 17.96h-6.56l-8.72-26.53h6.37l5.99 18.64 6.25-18.64h5.68l6.06 18.8 6.18-18.8zm8.58 5.84c3.16 0 5.58.76 7.28 2.27 1.69 1.49 2.54 3.75 2.54 6.78v11.63h-5.53v-2.54c-1.11 1.89-3.18 2.84-6.21 2.84-1.57 0-2.93-.27-4.09-.8-1.14-.53-2.01-1.26-2.61-2.2-.61-.93-.91-2-.91-3.18 0-1.89.71-3.39 2.12-4.47 1.44-1.09 3.65-1.63 6.63-1.63h4.7c0-1.29-.39-2.27-1.17-2.96-.78-.71-1.96-1.06-3.52-1.06-1.09 0-2.16.18-3.22.53-1.04.33-1.92.78-2.65 1.36l-2.12-4.13c1.11-.78 2.44-1.39 3.98-1.82 1.54-.41 3.14-.62 4.78-.62zm-.45 17.01c1.01 0 1.91-.23 2.69-.68.78-.48 1.34-1.17 1.67-2.08v-2.08h-4.05c-2.43 0-3.64.8-3.64 2.39 0 .76.29 1.36.87 1.82.6.42 1.42.63 2.46.63zm14.48-24.44h5.91v28.12h-5.91zm10.26 0h5.91v28.12h-5.91zm30.23 18c0 .08-.04.61-.11 1.59h-15.42c.28 1.26.94 2.26 1.97 2.99 1.04.73 2.33 1.1 3.87 1.1 1.06 0 2-.15 2.8-.45.83-.33 1.61-.83 2.31-1.52l3.15 3.41c-1.92 2.2-4.72 3.3-8.41 3.3-2.3 0-4.33-.44-6.1-1.33-1.77-.91-3.13-2.16-4.09-3.75s-1.44-3.4-1.44-5.42.47-3.79 1.4-5.38c.96-1.62 2.26-2.87 3.9-3.75 1.67-.91 3.52-1.36 5.57-1.36s3.8.43 5.42 1.29 2.88 2.1 3.79 3.71c.93 1.59 1.39 3.45 1.39 5.57zm-10.57-6.1c-1.34 0-2.46.38-3.37 1.14s-1.46 1.79-1.67 3.11h10.04c-.2-1.29-.76-2.31-1.67-3.07-.9-.79-2.01-1.18-3.33-1.18zm26.52 15.23c-.58.43-1.3.76-2.16.99-.83.2-1.72.3-2.65.3-2.43 0-4.31-.62-5.65-1.86-1.31-1.24-1.97-3.06-1.97-5.46v-8.37h-3.15v-4.55h3.15v-4.96h5.91v4.96h5.08v4.55h-5.08v8.3c0 .86.21 1.53.64 2.01.45.45 1.09.68 1.89.68.93 0 1.73-.25 2.39-.76z" fill="#fff"/></svg>