<svg xmlns:xlink="http://www.w3.org/1999/xlink" xmlns="http://www.w3.org/2000/svg" viewBox="0 0 468.1 121.2" width="468.1"  height="121.2" ><g fill="#fff"><path d="m75.4 88.1-21.6 9.4v-.9c-4.3 1.1-8.7 1.7-13.2 1.9-20.3-.2-36.4-10.8-36.6-23.4v-4.7c6.6 9.7 20.3 16.2 36.6 15.9 5.4.2 10.7-.5 15.9-1.9l1.9-4.7c-5.8 1.8-11.8 2.8-17.8 2.8-20.3.1-36.4-10.5-36.6-23.4v-3.8c6.6 9 20.2 15.4 36.6 15.1 7.1.4 14.2-.9 20.6-3.8l.9-4.7c-6.7 3.3-14.1 5-21.6 4.7-20.3.3-36.4-10.3-36.6-23.4v-3.8c6.6 9.2 20.3 15.6 36.6 15.9 8.8-.3 17.5-2.5 25.4-6.5l.9-5.6c-6.5 4.8-16.1 8-26.2 8.4-20.4-.5-36.5-11.1-36.7-24.4.2-12.6 16.3-23.3 36.6-23.4 12.1.2 23.3 4.5 30 11.3l.7 1h4.7l-.7-1.1c-6.7-9-20-15-34.8-15-22.4 0-40.4 12.4-40.4 27.2v48.8c.8 14.5 18.3 26.3 40.4 26.3 14.8-.1 27.9-5.9 35-14.2z"/><path d="m66.6 121.2 7.6-32.2-21.8 9.5 13.3-55.9h-25.6l6.6-27.5h81.5l-6.6 27.5h-26.5l-5.7 15.2 29.4-12.3zm13.3-38.9-3.8 18.9 31.3-47.4-25.6 11.4 11.4-26.5h25.6l4.7-19.9h-73.9l-4.7 19.9h25.6l-12.3 53z"/><path d="m178.8 33.5c0 1.4-.4 2.7-.9 3.9-.6 1.2-1.4 2.3-2.4 3.2-2.3 1.8-5.1 2.8-8 2.6-1.6.1-3.2-.2-4.7-.8s-2.8-1.6-3.9-2.8c-2.1-2.4-3.1-5.8-3.1-10.1v-1.7c-.1-2.5.4-4.9 1.4-7.2.9-2 2.3-3.6 4.1-4.8 2.2-1.2 4.7-1.8 7.2-1.6s4.9 1.1 6.9 2.6c2.1 1.9 3.3 4.6 3.5 7.4h-5.8c0-1.5-.5-2.9-1.5-4-1.1-.9-2.6-1.3-4-1.2-.8-.1-1.7.1-2.5.5s-1.4.9-1.9 1.6c-1 1.4-1.5 3.6-1.5 6.5v2.1c0 3.1.5 5.3 1.4 6.7.5.7 1.1 1.3 1.9 1.6.8.4 1.6.5 2.5.5 1.5.1 2.9-.3 4-1.2 1-1 1.5-2.4 1.5-3.8z"/><path d="m205.9 29.4c.1 2.5-.4 5-1.5 7.3-.9 2-2.4 3.7-4.2 4.9-1.9 1.1-4.1 1.7-6.3 1.7s-4.4-.6-6.3-1.7c-1.9-1.2-3.4-2.8-4.3-4.8-1-2.3-1.6-4.7-1.5-7.2v-1.4c-.1-2.5.5-5 1.5-7.4.9-2 2.4-3.7 4.3-4.9 1.9-1.1 4.1-1.7 6.3-1.7s4.4.6 6.3 1.7c1.9 1.2 3.3 2.9 4.3 4.9 1 2.3 1.6 4.8 1.5 7.3v1.3zm-5.9-1.3c0-3-.5-5.2-1.6-6.8-.5-.7-1.2-1.3-2-1.7s-1.7-.6-2.5-.6c-.9 0-1.8.2-2.5.6-.8.4-1.5 1-2 1.7-1.1 1.5-1.6 3.8-1.6 6.7v1.4c-.1 2.3.4 4.7 1.6 6.7.5.7 1.2 1.3 2 1.7s1.7.6 2.6.6 1.8-.2 2.6-.6 1.5-1 2-1.7c1-1.5 1.6-3.8 1.6-6.7v-1.3z"/><path d="m216.3 42.8h-5.8v-28.3h5.8z"/><path d="m244.7 42.8h-5.8l-11.3-18.6v18.6h-5.8v-28.3h5.8l11.4 18.6v-18.6h5.8v28.3z"/><path d="m270.5 19.3h-8.7v23.6h-5.7v-23.6h-8.5v-4.7h23v4.7z"/><path d="m290.9 30.6h-11.2v7.6h13.1v4.7h-19v-28.3h18.9v4.7h-13.1v6.7h11.2v4.6z"/><path d="m302.1 38.1h12.4v4.7h-18.2v-28.3h5.8z"/><path d="m334.8 30.6h-11.2v7.6h13.1v4.7h-19v-28.3h18.9v4.7h-13.1v6.7h11.2v4.6z"/><path d="m362.6 39.3c-1.2 1.4-2.7 2.4-4.4 2.9-2 .7-4.2 1.1-6.4 1-2.3.1-4.5-.5-6.4-1.6s-3.4-2.7-4.3-4.7c-1.1-2.2-1.6-4.7-1.5-7.2v-1.9c-.1-2.5.4-5 1.4-7.3.9-2 2.3-3.6 4.1-4.7 1.9-1.1 4.1-1.7 6.3-1.6 3.4 0 6 .8 7.9 2.4 2 1.8 3.2 4.3 3.4 7h-5.7c-.1-1.4-.7-2.6-1.7-3.6-1-.8-2.3-1.2-3.7-1.1-.9 0-1.8.1-2.6.5s-1.5 1-2 1.7c-1 1.5-1.6 3.7-1.6 6.6v1.8c0 3 .6 5.2 1.7 6.7.6.8 1.3 1.4 2.2 1.8s1.8.6 2.8.5c2.2 0 3.7-.5 4.7-1.4v-4.9h-5.3v-4.3h11.1z"/><path d="m377.7 32.5h-4.6v10.4h-5.8v-28.3h10.5c3.3 0 5.9.7 7.7 2.2.9.8 1.6 1.7 2.1 2.8s.7 2.3.6 3.5c.1 1.7-.4 3.4-1.3 4.8s-2.3 2.4-3.8 3.1l6.1 11.6v.3h-6.3zm-4.6-4.8h4.7c1.2.1 2.5-.3 3.4-1.1.4-.4.7-.9.9-1.4s.3-1.1.3-1.7-.1-1.1-.2-1.7c-.2-.5-.5-1-.9-1.5-.5-.4-1-.7-1.6-.9s-1.2-.3-1.9-.2h-4.7z"/><path d="m408.6 37h-10.2l-1.9 5.8h-6.2l10.5-28.3h5.4l10.6 28.3h-6.2zm-8.6-4.7h7.1l-3.6-10.6z"/><path d="m425.3 32.9v10h-5.8v-28.3h11c1.9 0 3.8.4 5.6 1.2 1.5.7 2.8 1.9 3.7 3.3.9 1.5 1.3 3.2 1.3 4.9.1 1.2-.2 2.5-.7 3.6s-1.2 2.1-2.2 2.9c-1.9 1.6-4.5 2.4-7.9 2.4zm0-4.8h5.2c1.3.1 2.5-.3 3.5-1.1.4-.4.7-.9 1-1.4.2-.5.3-1.1.3-1.7s-.1-1.2-.3-1.8-.5-1.1-.9-1.6c-.4-.4-1-.8-1.6-1s-1.2-.3-1.8-.3h-5.3v8.9z"/><path d="m468.1 42.8h-5.8v-12.1h-11.4v12.1h-5.8v-28.3h5.8v11.5h11.4v-11.5h5.8z"/><path d="m174 73.1h-7.2v19.6h-4.9v-19.6h-7.1v-3.9h19.2z"/><path d="m181 77.1c.6-.7 1.3-1.3 2.1-1.7s1.7-.6 2.6-.6c3.8 0 5.7 2.2 5.8 6.6v11.2h-4.7v-11.1c.1-.8-.2-1.6-.6-2.2-.3-.3-.6-.5-1-.6s-.8-.2-1.2-.1c-.6 0-1.2.1-1.7.4s-1 .7-1.3 1.2v12.4h-4.7v-24.9h4.7z"/><path d="m203 93.1c-1.2 0-2.3-.1-3.4-.5s-2.1-1-2.9-1.8-1.5-1.8-1.9-2.9-.6-2.2-.6-3.4v-.5c0-1.6.3-3.2 1-4.7.6-1.3 1.6-2.4 2.9-3.2s2.8-1.2 4.3-1.1c1.1-.1 2.1.1 3.1.5s1.9 1 2.6 1.8c1.4 1.5 2.1 3.7 2.1 6.4v1.9h-11.1c.1 1.1.6 2 1.4 2.8.8.7 1.8 1.1 2.9 1 .8 0 1.6-.1 2.4-.5.7-.3 1.4-.9 1.9-1.5l2.3 2.6c-.7 1-1.7 1.8-2.8 2.3-1.4.5-2.8.8-4.2.8zm-.5-14.4c-.4 0-.8.1-1.2.2-.4.2-.7.4-1 .7-.6.8-1 1.7-1.1 2.7h6.5v-.4c0-.9-.3-1.7-.8-2.4-.3-.3-.7-.5-1.1-.7-.5-.1-.9-.1-1.3-.1z"/><path d="m222.4 92.7v-14.1h-2.6v-3.4h2.6v-1.5c-.1-.8.1-1.7.4-2.5s.7-1.5 1.3-2.1c1.3-1.1 3-1.7 4.7-1.6.8 0 1.6.1 2.4.3v3.6c-.5-.1-.9-.2-1.4-.1-1.8 0-2.6.8-2.6 2.5v1.4h3.5v3.4h-3.6v14.1z"/><path d="m243.5 91c-.6.7-1.3 1.3-2.1 1.6-.8.4-1.7.5-2.6.5-.8.1-1.6-.1-2.3-.3-.7-.3-1.4-.7-2-1.3-1.1-1.3-1.6-3-1.5-4.7v-11.5h4.7v11.3c0 1.8.8 2.7 2.5 2.7.6.1 1.3-.1 1.9-.3.6-.3 1.1-.7 1.4-1.3v-12.4h4.7v17.5h-4.4z"/><path d="m257.2 70.9v4.3h3v3.4h-3v8.7c0 .5.1 1 .4 1.4.2.2.4.3.7.4.2.1.5.1.8.1.5 0 .9 0 1.4-.1v3.5c-.9.3-1.9.4-2.8.4-3.3 0-5-1.7-5-5v-9.4h-2.6v-3.4h2.6v-4.3z"/><path d="m273.3 91c-.6.7-1.3 1.3-2.1 1.6-.8.4-1.7.5-2.6.5-.8.1-1.6-.1-2.3-.3-.7-.3-1.4-.7-2-1.3-1.1-1.3-1.6-3-1.5-4.7v-11.5h4.7v11.3c0 1.8.8 2.7 2.5 2.7.6.1 1.3-.1 1.9-.3.6-.3 1.1-.7 1.4-1.3v-12.4h4.7v17.5h-4.4z"/><path d="m291.2 79.6c-.6-.1-1.1-.1-1.7-.1-1.8 0-2.9.6-3.5 1.8v11.5h-4.7v-17.5h4.4l.1 2.1c.4-.7.9-1.3 1.6-1.8.7-.4 1.5-.7 2.3-.6.5 0 1 .1 1.5.2z"/><path d="m301.2 93.1c-1.2 0-2.3-.1-3.4-.5s-2.1-1-2.9-1.8-1.5-1.8-1.9-2.9-.6-2.2-.6-3.4v-.5c0-1.6.3-3.2 1-4.7.6-1.3 1.6-2.4 2.9-3.2s2.8-1.2 4.3-1.1c1.1-.1 2.1.1 3.1.5s1.9 1 2.6 1.8c1.4 1.5 2.1 3.7 2.1 6.4v1.9h-11.2c.1 1.1.6 2 1.4 2.8.8.7 1.8 1.1 2.9 1 .8 0 1.6-.1 2.4-.5.7-.3 1.4-.9 1.9-1.5l2.3 2.6c-.7 1-1.7 1.8-2.8 2.3-1.4.5-2.7.8-4.1.8zm-.6-14.4c-.4 0-.8.1-1.2.2-.4.2-.7.4-1 .7-.6.8-1 1.7-1.1 2.7h6.5v-.4c0-.9-.3-1.7-.8-2.4-.3-.3-.7-.5-1.1-.7-.4-.1-.8-.1-1.3-.1z"/><path d="m318.6 83.8c0-1.6.3-3.2 1-4.6.6-1.3 1.6-2.4 2.9-3.2s2.8-1.1 4.4-1.1c1.1 0 2.1.1 3.1.5s1.9.9 2.7 1.7c1.6 1.6 2.4 3.7 2.5 5.9v1.2c.1 2.4-.7 4.7-2.2 6.5-1.6 1.6-3.8 2.4-6 2.4s-4.4-.9-6-2.4c-1.6-1.8-2.4-4.2-2.3-6.6v-.3zm4.6.4c-.1 1.3.2 2.7.9 3.8.3.4.7.7 1.2 1 .5.2 1 .3 1.5.4.5 0 1-.1 1.5-.3s.9-.6 1.2-1c.7-1.3 1.1-2.7 1-4.2.1-1.3-.3-2.7-1-3.8-.3-.4-.7-.8-1.2-1s-1-.3-1.5-.3-1 .1-1.5.3-.9.6-1.2 1c-.6 1.2-1 2.6-.9 4.1z"/><path d="m339.3 92.7v-14.1h-2.6v-3.4h2.6v-1.5c-.1-.8.1-1.7.4-2.5s.7-1.5 1.3-2.1c1.3-1.1 3-1.7 4.7-1.6.8 0 1.6.1 2.4.3v3.6c-.5-.1-.9-.2-1.4-.1-1.8 0-2.6.8-2.6 2.5v1.4h3.5v3.4h-3.5v14.1z"/><path d="m362.6 75.2.1 2c.6-.7 1.4-1.3 2.2-1.7.9-.4 1.8-.6 2.8-.5 1-.1 1.9.1 2.7.6s1.5 1.2 1.9 2.1c.6-.9 1.4-1.6 2.3-2 .9-.5 1.9-.7 3-.6.8-.1 1.6.1 2.3.3.7.3 1.4.7 1.9 1.3 1 1.5 1.5 3.2 1.4 5v11.2h-4.7v-11.2c.1-.8-.1-1.5-.6-2.2-.3-.3-.6-.5-1-.6s-.7-.2-1.1-.1c-.6 0-1.3.1-1.8.5s-.9.9-1.1 1.5v12h-4.7v-11.2c.1-.8-.1-1.6-.6-2.2-.3-.3-.6-.4-.9-.6-.4-.1-.7-.2-1.1-.1-.6 0-1.2.1-1.7.4s-.9.7-1.2 1.3v12.4h-4.7v-17.5h4.6z"/><path d="m386.1 83.8c0-1.6.3-3.2 1-4.6.6-1.3 1.6-2.4 2.9-3.2s2.8-1.1 4.4-1.1c1.1 0 2.1.1 3.1.5s1.9.9 2.7 1.7c1.6 1.6 2.4 3.7 2.5 5.9v1.2c.1 2.4-.7 4.7-2.2 6.5-1.6 1.6-3.8 2.4-6 2.4s-4.4-.9-6-2.4c-1.6-1.8-2.4-4.2-2.3-6.6v-.3zm4.7.4c-.1 1.3.2 2.7.9 3.8.3.4.7.7 1.2 1 .5.2 1 .3 1.5.4s1-.1 1.5-.3.9-.6 1.2-1c.7-1.3 1.1-2.7 1-4.2.1-1.3-.3-2.7-1-3.8-.3-.4-.7-.8-1.2-1s-1-.3-1.5-.3-1 .1-1.5.3-.9.6-1.2 1c-.7 1.2-1 2.6-.9 4.1z"/><path d="m409.9 75.2.1 2c.6-.8 1.4-1.4 2.2-1.8.9-.4 1.8-.6 2.8-.6.8-.1 1.5.1 2.3.3.7.3 1.4.7 1.9 1.3 1 1.4 1.5 3.1 1.4 4.9v11.3h-4.7v-11.2c.1-.8-.2-1.6-.6-2.2-.3-.2-.6-.4-1-.6-.4-.1-.8-.2-1.1-.1-.6 0-1.2.1-1.7.4s-1 .7-1.2 1.3v12.4h-4.7v-17.5h4.3z"/><path d="m432.3 93.1c-1.2 0-2.3-.1-3.4-.5s-2.1-1-2.9-1.8-1.5-1.8-1.9-2.9-.6-2.2-.6-3.4v-.5c0-1.6.3-3.2 1-4.7.6-1.3 1.6-2.4 2.9-3.2s2.8-1.2 4.3-1.1c1.1-.1 2.1.1 3.1.5s1.9 1 2.6 1.8c1.4 1.5 2.1 3.7 2.1 6.4v1.9h-11.2c.1 1.1.6 2 1.4 2.8.8.7 1.8 1.1 2.9 1 .8 0 1.6-.1 2.4-.5.7-.3 1.4-.9 1.9-1.5l2.3 2.6c-.7 1-1.7 1.8-2.8 2.3-1.4.5-2.8.8-4.1.8zm-.6-14.4c-.4 0-.8.1-1.2.2-.4.2-.7.4-1 .7-.6.8-1 1.7-1.1 2.7h6.5v-.4c0-.9-.3-1.7-.8-2.4-.3-.3-.7-.5-1.1-.7-.4-.1-.9-.1-1.3-.1z"/><path d="m448.4 86.1 3.2-10.9h5l-7 20.2-.4.9c-.4 1-1.1 1.9-2 2.5s-2 .9-3.1.9c-.7 0-1.4-.1-2.1-.3v-3.5h.7c.7 0 1.4-.1 2-.4.5-.3.8-.8 1-1.3l.6-1.4-6.1-17.6h5z"/></g></svg>