<svg xmlns:xlink="http://www.w3.org/1999/xlink" xmlns="http://www.w3.org/2000/svg" viewBox="0 0 160.1 24.7" width="227"  height="35" ><g fill="#fff"><path d="m31 19.2c-.4 0-.6-.1-.8-.2-.1-.2-.2-.4-.2-.7v-11.2c0-.3.1-.6.2-.7.2-.2.4-.3.8-.3h4.7c1.8 0 3.1.4 4 1.1.8.8 1.3 1.9 1.3 3.4s-.4 2.6-1.3 3.4c-.8.7-2.2 1.1-4 1.1h-1.8v3.1c0 .3-.1.6-.2.7-.2.2-.4.2-.8.2h-1.9zm4.4-6.9c.5 0 .9-.1 1.2-.4s.4-.7.4-1.3-.1-1-.4-1.3-.7-.4-1.2-.4h-1.5v3.4z"/><path d="m45.5 19.5c-1.2 0-2.2-.4-2.9-1.2s-1.1-1.9-1.1-3.3c0-1.1.2-2 .7-2.8s1.2-1.4 2.1-1.9c.9-.4 2-.7 3.1-.7 1 0 1.8.1 2.6.3s1.4.5 2.1.9v7.7c0 .2 0 .4-.1.5s-.3.1-.5.1h-2c-.1 0-.3 0-.3-.1q-.1-.1-.2-.2l-.3-.6c-.4.4-.8.7-1.3.9-.5.3-1.2.4-1.9.4zm1.4-2.6c.5 0 .9-.1 1.2-.4.3-.2.4-.6.4-1v-3c-.2-.1-.6-.2-.9-.2-.7 0-1.2.2-1.6.7s-.6 1.1-.6 2c0 1.2.5 1.9 1.5 1.9z"/><path d="m54.8 19.2c-.4 0-.6-.1-.8-.2-.2-.2-.2-.4-.2-.7v-7.8c0-.2 0-.4.1-.5s.3-.1.5-.1h2c.2 0 .3 0 .3.1.1 0 .1.1.2.2l.1.6c.4-.4.8-.6 1.4-.8s1.2-.3 2-.3c1 0 1.9.3 2.5.9s1 1.4 1 2.6v5.1c0 .3-.1.6-.2.7-.1.2-.4.2-.8.2h-1.9c-.4 0-.6-.1-.8-.2-.2-.2-.2-.4-.2-.7v-4.9c0-.4-.1-.7-.3-.8-.2-.2-.4-.3-.8-.3s-.7.1-.9.3-.3.5-.3.8v4.8c0 .3-.1.6-.2.7-.1.2-.4.2-.8.2h-1.9z"/><path d="m70.7 19.5c-1.8 0-3.2-.4-4.2-1.3-1-.8-1.5-2-1.5-3.6 0-1 .2-1.8.7-2.6.4-.7 1.1-1.3 1.9-1.7.9-.4 1.9-.6 3-.6.9 0 1.6.1 2.2.3s1.2.4 1.6.8c.1.1.2.2.2.3s-.1.2-.2.4l-.8 1.4c-.1.2-.2.3-.3.3s-.2-.1-.4-.2c-.3-.2-.7-.4-1-.5s-.7-.2-1.1-.2c-.6 0-1.2.2-1.6.6s-.6 1-.6 1.7.2 1.3.6 1.7.9.6 1.6.6c.4 0 .8-.1 1.1-.2s.7-.3 1-.5c.2-.1.3-.2.4-.2s.2.1.3.3l.9 1.5c.1.1.1.2.1.3s-.1.2-.2.3c-.5.3-1.1.6-1.8.8-.3.2-1 .3-1.9.3z"/><path d="m79.8 19.5c-1.2 0-2.2-.4-2.9-1.2s-1.1-1.9-1.1-3.3c0-1.1.2-2 .7-2.8s1.2-1.4 2.1-1.9c.9-.4 2-.7 3.1-.7 1 0 1.8.1 2.6.3s1.4.5 2.1.9v7.7c0 .2 0 .4-.1.5s-.3.1-.5.1h-2c-.1 0-.3 0-.3-.1l-.2-.2-.3-.6c-.4.4-.8.7-1.3.9-.5.3-1.1.4-1.9.4zm1.5-2.6c.5 0 .9-.1 1.2-.4.3-.2.4-.6.4-1v-3c-.2-.1-.6-.2-.9-.2-.7 0-1.2.2-1.6.7s-.6 1.1-.6 2c-.1 1.2.4 1.9 1.5 1.9z"/><path d="m98.6 18.5c.1.1.1.2.1.3s0 .2-.1.3-.2.1-.3.1h-3.4c-.1 0-.2-.1-.3-.2l-2.6-3.6v2.8c0 .3-.1.6-.2.7-.2.2-.4.2-.8.2h-1.9c-.4 0-.6-.1-.8-.2-.1-.2-.2-.4-.2-.7v-11.1c0-.3.1-.6.2-.7.2-.2.4-.3.8-.3h1.9c.4 0 .6.1.8.3s.2.4.2.7v6.4l2.5-3.3c.1-.1.2-.2.3-.2s.2-.1.4-.1h3c.1 0 .2 0 .3.1s.1.2.1.3 0 .2-.1.3l-3.3 3.8z"/><path d="m104.8 19.5c-1.1 0-2-.2-2.9-.5-.8-.4-1.5-.9-2-1.6s-.7-1.6-.7-2.6c0-1.6.5-2.9 1.4-3.7.9-.9 2.3-1.3 4-1.3s3 .4 3.8 1.3c.9.8 1.3 2 1.3 3.5 0 .6-.3 1-.8 1h-6c0 .6.2 1 .6 1.3s1.1.4 1.9.4c.5 0 1 0 1.3-.1.4-.1.7-.3 1.1-.4.2-.1.3-.1.3-.1.1 0 .2.1.3.2l.7 1.2c.1.1.1.2.1.3s-.1.2-.2.3c-.5.3-1.1.6-1.8.8-.8-.1-1.5 0-2.4 0zm1.5-6c0-.5-.1-.9-.4-1.1-.3-.3-.7-.4-1.3-.4s-1 .1-1.3.4-.4.6-.4 1.1z"/><path d="m116.4 19.5c-1.1 0-2.1-.1-3.1-.3s-1.7-.6-2.3-1c-.2-.1-.3-.3-.3-.4s0-.2.1-.3l.9-1.5c.1-.2.2-.2.3-.2s.2 0 .3.1c.5.3 1 .5 1.6.7s1.2.3 1.8.3 1-.1 1.3-.3.4-.5.4-.9-.2-.7-.5-.9-.9-.5-1.8-.8c-1.3-.5-2.3-1-3-1.6s-1.1-1.5-1.1-2.5c0-1.3.5-2.2 1.4-2.9s2.1-1 3.6-1c1.1 0 2 .1 2.7.3.8.2 1.4.5 1.9.8.2.2.3.3.3.5 0 .1 0 .2-.1.3l-.9 1.5c-.1.2-.2.2-.3.2s-.2 0-.3-.1c-.7-.5-1.6-.7-2.7-.7-.6 0-1 .1-1.3.3s-.4.5-.4.9c0 .3.1.5.2.7.2.2.4.3.6.5.3.1.7.3 1.2.5l.4.1c.9.4 1.7.7 2.2 1.1.6.3 1 .8 1.3 1.3s.4 1.1.4 1.8c0 1.1-.4 2.1-1.3 2.7-.6.4-1.9.8-3.5.8z"/><path d="m125.5 19.2c-.2 0-.3 0-.4-.1s-.2-.2-.2-.4l-2.5-8.3v-.2c0-.2.1-.3.4-.3h2.5c.2 0 .3 0 .4.1q.1.1.2.3l1 4.4 1.3-3.5c.1-.2.1-.3.2-.3.1-.1.2-.1.4-.1h1.2c.2 0 .3 0 .4.1s.1.2.2.3l1.3 3.5 1.1-4.4c0-.1.1-.2.2-.3s.2-.1.3-.1h2.6c.3 0 .4.1.4.3v.2l-2.5 8.3c-.1.2-.1.3-.2.4s-.2.1-.4.1h-1.9c-.2 0-.3 0-.4-.1s-.2-.2-.2-.4l-1.3-3.5-1.3 3.5c-.1.2-.1.3-.2.4s-.2.1-.4.1z"/><path d="m141.1 19.5c-1.2 0-2.2-.4-2.9-1.2s-1.1-1.9-1.1-3.3c0-1.1.2-2 .7-2.8s1.2-1.4 2.1-1.9c.9-.4 2-.7 3.1-.7 1 0 1.8.1 2.6.3s1.4.5 2.1.9v7.7c0 .2 0 .4-.1.5s-.3.1-.5.1h-2c-.1 0-.2 0-.3-.1s-.1-.1-.2-.2l-.3-.6c-.4.4-.8.7-1.3.9-.5.3-1.1.4-1.9.4zm1.5-2.6c.5 0 .9-.1 1.2-.4.3-.2.4-.6.4-1v-3c-.2-.1-.6-.2-.9-.2-.7 0-1.2.2-1.6.7s-.6 1.1-.6 2c-.1 1.2.4 1.9 1.5 1.9z"/><path d="m150.4 23.1c-.4 0-.6-.1-.8-.2-.1-.2-.2-.4-.2-.7v-11c.6-.4 1.3-.8 2.2-1 .9-.3 1.8-.4 2.7-.4 3.9 0 5.8 1.6 5.8 4.9 0 1.5-.4 2.7-1.2 3.6s-2 1.3-3.5 1.3c-.4 0-.8-.1-1.2-.2s-.7-.2-1-.4v3.2c0 .3-.1.6-.2.7-.2.2-.4.2-.8.2zm4.2-6.2c.6 0 1-.2 1.2-.6.3-.4.4-1 .4-1.7 0-.8-.2-1.4-.5-1.8-.3-.3-.8-.5-1.5-.5-.4 0-.8.1-1 .2v3c0 .4.1.8.4 1 .2.3.6.4 1 .4z"/></g><path d="m4.5 3.9c-.4-2 1.2-3.9 3.2-3.9 1.8 0 3.3 1.5 3.3 3.3v4h2.7v-4c0-1.8 1.5-3.3 3.3-3.3 2 0 3.6 1.9 3.2 3.9l-.9 4.7c3 1.3 5.3 3.6 5.3 6.5v1.7c0 2.4-1.6 4.4-3.8 5.7-2.2 1.4-5.2 2.2-8.5 2.2s-6.3-.8-8.5-2.2c-2.2-1.3-3.8-3.3-3.8-5.7v-1.7c0-2.9 2.3-5.2 5.3-6.5zm13.7 5.4 1-5.5c.3-1.4-.8-2.7-2.2-2.7-1.3 0-2.3 1-2.3 2.3v5.1c-.3 0-.7-.1-1-.1h-1.3c-.5 0-.9 0-1.4.1-.3 0-.7.1-1 .1v-5.1c0-1.3-1-2.3-2.3-2.3-1.4 0-2.5 1.3-2.2 2.7l1 5.6c-3.2 1.2-5.4 3.4-5.4 5.9v1.7c0 3.8 5 6.9 11.2 6.9s11.2-3.1 11.2-6.9v-1.7c.1-2.7-2.1-4.9-5.3-6.1z" fill="#633001" fill-rule="evenodd"/><path d="m23.6 16.9c0 3.8-5 6.9-11.2 6.9s-11.2-3.1-11.2-6.9v-1.7h22.5v1.7z" fill="#fedc90"/><path d="m5.5 3.7c-.3-1.4.8-2.7 2.2-2.7 1.3 0 2.3 1 2.3 2.3v5.2c.8-.1 1.6-.2 2.4-.2s1.6.1 2.3.1v-5.1c0-1.3 1-2.3 2.3-2.3 1.4 0 2.5 1.3 2.2 2.7l-1 5.5c3.3 1.2 5.5 3.4 5.5 5.9 0 3.8-5 6.9-11.2 6.9s-11.2-3.1-11.2-6.9c0-2.5 2.2-4.7 5.4-5.9z" fill="#d1884f" fill-rule="evenodd"/><path d="m9.3 14.7c0 1-.6 1.9-1.2 1.9s-1.2-.8-1.2-1.9c0-1 .6-1.9 1.2-1.9s1.2.8 1.2 1.9z" fill="#633001"/><path d="m17.9 14.7c0 1-.6 1.9-1.2 1.9-.7 0-1.2-.8-1.2-1.9 0-1 .6-1.9 1.2-1.9s1.2.8 1.2 1.9z" fill="#633001"/></svg>