<svg xmlns:xlink="http://www.w3.org/1999/xlink" class="" fill="none" height="72" viewBox="0 0 24 24" width="72" xmlns="http://www.w3.org/2000/svg"><g stroke="#5DEB5A" stroke-linecap="round" stroke-linejoin="round" stroke-width="1.5px" fill="none"><path d="m4.99021 7.18998c0-1.21471.98422-2.19892 2.19892-2.19989h1.00075c.58061 0 1.13691-.2305 1.54926-.63897l.69926-.70023c.8568-.86167 2.2495-.86556 3.1112-.00972l.0009.00097.0088.00778.7002.70023c.4114.40944.9687.63896 1.5493.63896h1.0027c1.2147 0 2.1999.98519 2.1999 2.1999v.99977c0 .58158.2295 1.13788.6389 1.55024l.7003.70018c.8616.8569.8665 2.2495.0107 3.1112l-.71.71c-.4094.4114-.6389.9686-.6389 1.5483v1.0036c-.002 1.2147-.9872 2.197-2.2009 2.196h-1.0047c-.5806 0-1.1378.2305-1.5492.64l-.7002.6992c-.8549.8627-2.2476.8685-3.1093.0136l-.0029-.0019-.708-.708c-.41139-.4095-.96865-.639-1.54926-.6399h-.99881c-1.2147 0-2.19892-.9843-2.19892-2.199v-1.0056c0-.5806-.23049-1.1369-.63993-1.5483l-.69926-.7002c-.86265-.8549-.86848-2.2456-.01459-3.1083 0 0 .00292-.0019.00389-.0038l.70801-.70903c.40944-.41138.63994-.96865.63994-1.55023v-.99686" stroke="#5DEB5A" fill="none" stroke-width="1.5px"></path><path d="m9.00391 12.1222 1.97719 1.9801 4.073-4.075" stroke="#5DEB5A" fill="none" stroke-width="1.5px"></path></g></svg>